<?xml version="1.0" encoding="UTF-8"?>
<svg version="1.1" xmlns="http://www.w3.org/2000/svg" width="132" height="150">
<path d="M0 0 C0.639375 0.185625 1.27875 0.37125 1.9375 0.5625 C2.618125 0.706875 3.29875 0.85125 4 1 C4.33 0.67 4.66 0.34 5 0 C7.5 -0.125 7.5 -0.125 10 0 C10.495 0.495 10.495 0.495 11 1 C12.53677348 1.29734506 14.07977879 1.5627437 15.625 1.8125 C20.49403096 2.72894117 23.86844527 4.30550779 28 7 C28 7.66 28 8.32 28 9 C29.3303125 9.309375 29.3303125 9.309375 30.6875 9.625 C34.79242989 11.32893316 36.33486616 13.49324495 39 17 C39.7425 17.680625 40.485 18.36125 41.25 19.0625 C45.88815189 24.19759673 45.2777289 35.18901845 46 42 C46.10054687 42.928125 46.20109375 43.85625 46.3046875 44.8125 C46.93699902 56.11971774 41.44170838 65.39827786 34.22363281 73.60107422 C29.86128011 78.34765289 25.43410246 82.5312608 19.4609375 85.0859375 C15.80008418 86.78137694 12.89184238 88.15117278 11.07080078 91.92626953 C9.27272809 96.84329437 8.08240764 101.88419969 7 107 C6.34 107 5.68 107 5 107 C4.855625 108.2375 4.71125 109.475 4.5625 110.75 C3.56994128 118.45932598 3.56994128 118.45932598 1.5546875 120.37109375 C-0.13878435 122.14540974 -0.72488751 123.44311759 -1.5 125.75 C-1.75007813 126.44738281 -2.00015625 127.14476563 -2.2578125 127.86328125 C-2.74068509 129.25344602 -3.21511516 130.64658178 -3.6796875 132.04296875 C-4.375 133.9375 -4.375 133.9375 -6 137 C-8.5625 138 -8.5625 138 -11 138 C-11.66 137.67 -12.32 137.34 -13 137 C-13.99 143.435 -13.99 143.435 -15 150 C-15.99 150 -16.98 150 -18 150 C-19.98 145.71 -21.96 141.42 -24 137 C-24.66 137.99 -25.32 138.98 -26 140 C-28.625 140.1875 -28.625 140.1875 -31 140 C-32.4606285 137.35261084 -33 136.10551666 -33 133 C-33.66 133 -34.32 133 -35 133 C-35.21765015 132.1478894 -35.21765015 132.1478894 -35.43969727 131.27856445 C-38.47944136 119.56364887 -41.85448855 109.46076162 -48 99 C-52 90.84750733 -52 90.84750733 -52 88 C-53.24136719 87.74605469 -54.48273437 87.49210937 -55.76171875 87.23046875 C-57.4037483 86.88329679 -59.04566981 86.53561357 -60.6875 86.1875 C-61.50412109 86.02185547 -62.32074219 85.85621094 -63.16210938 85.68554688 C-68.55247471 84.52890978 -72.52185614 82.98251509 -76.875 79.5 C-79.75065781 77.4701239 -82.73739696 76.31758969 -86 75 C-86 73.68 -86 72.36 -86 71 C-80.88888889 67 -80.88888889 67 -78 67 C-77.34 65.68 -76.68 64.36 -76 63 C-75.34 63 -74.68 63 -74 63 C-73.7525 62.46375 -73.505 61.9275 -73.25 61.375 C-70.16626338 55.51590042 -66.09630468 50.56038554 -61.90234375 45.46484375 C-59.95323501 43.03900443 -59.95323501 43.03900443 -58.41796875 40.359375 C-56.66788456 37.44738918 -54.42568719 35.36185332 -52 33 C-50.46785112 29.93570224 -50.77061452 27.3834358 -51 24 C-51.8844609 21.05292754 -51.8844609 21.05292754 -54 19 C-57.31205235 17.65749408 -57.31205235 17.65749408 -61 18 C-63.31630911 19.43716452 -65.00786001 21.10051768 -67 23 C-67.66 23 -68.32 23 -69 23 C-69.33 25.97 -69.66 28.94 -70 32 C-68.68 32.66 -67.36 33.32 -66 34 C-63.7334976 36.34744891 -63.03664476 37.46254352 -62.8125 40.75 C-62.9053125 41.86375 -62.9053125 41.86375 -63 43 C-69.72490482 43.33624524 -75.52272264 40.70312819 -81 36.9375 C-83.50420384 34.51155253 -84.90497529 32.84411558 -85.30078125 29.328125 C-85.32473668 23.03583204 -85.08881231 18.51573626 -82 13 C-81.401875 11.906875 -80.80375 10.81375 -80.1875 9.6875 C-77.57738372 6.48078571 -75.943126 6.02521276 -72 5 C-71.0925 4.484375 -70.185 3.96875 -69.25 3.4375 C-60.67529739 -0.35515692 -52.04043427 0.93497202 -43.40625 3.88671875 C-38.84938582 5.71090647 -38.84938582 5.71090647 -37 7 C-36.25390625 9.1328125 -36.25390625 9.1328125 -36 11 C-35.34 11 -34.68 11 -34 11 C-29.61174887 18.40517378 -29.14505928 25.52018098 -30 34 C-30.60345773 36.01997109 -31.25223306 38.02888634 -32 40 C-32.66 40 -33.32 40 -34 40 C-34.2475 40.86625 -34.495 41.7325 -34.75 42.625 C-37.17520518 49.17305399 -41.54596273 53.87002343 -46.1953125 58.94921875 C-48.14443517 61.07229349 -48.14443517 61.07229349 -50 64 C-45.49712724 62.79191219 -42.39704806 60.98528604 -38.734375 58.23828125 C-35.4067121 55.86244985 -31.86084982 54.28694994 -28 53 C-25.15015702 57.65474354 -23.2976183 61.70139194 -22 67 C-21.67 65.02 -21.34 63.04 -21 61 C-20.34 61 -19.68 61 -19 61 C-19 58.69 -19 56.38 -19 54 C-17.68 54 -16.36 54 -15 54 C-15 54.66 -15 55.32 -15 56 C-14.36191406 56.06058594 -13.72382812 56.12117188 -13.06640625 56.18359375 C-12.24011719 56.26738281 -11.41382812 56.35117187 -10.5625 56.4375 C-9.73878906 56.51871094 -8.91507812 56.59992187 -8.06640625 56.68359375 C-6 57 -6 57 -5 58 C-2.31445052 58.43945355 0.29485379 58.75649257 3 59 C3.83917969 59.10183594 4.67835937 59.20367187 5.54296875 59.30859375 C10.47492341 59.68706541 10.47492341 59.68706541 14.86328125 57.71875 C21.00659681 51.01140795 22.7164238 42.95549278 23.2734375 34.07421875 C22.90440701 29.92526171 21.48946034 27.99938712 18.54296875 25.171875 C16.99204622 23.91900941 16.99204622 23.91900941 15 23 C15 22.34 15 21.68 15 21 C9.02039824 20.62627489 3.13074206 20.52545685 -2 24 C-4.81034915 27.51491555 -5.84294322 31.04020857 -6.5625 35.4375 C-5.62299125 41.38772209 -2.63102846 47.04755412 2 51 C3.485 51.495 3.485 51.495 5 52 C5 53.65 5 55.3 5 57 C0.75557831 58.13874728 -2.07252002 58.09499021 -6.0625 56.14453125 C-11.25794148 53.07544989 -16.01949796 50.15710449 -18.5625 44.5625 C-18.7790625 43.2940625 -18.7790625 43.2940625 -19 42 C-19.66 42 -20.32 42 -21 42 C-23.70646244 35.98315376 -25.34077072 28.24956142 -23.30859375 21.80859375 C-22.3125 20.0625 -22.3125 20.0625 -20 17 C-19.34 15.906875 -18.68 14.81375 -18 13.6875 C-15.95673775 10.94186635 -14.99432122 10.3610551 -12 9 C-11.175 8.175 -10.35 7.35 -9.5 6.5 C-7.30088296 4.30088296 -5.87361825 3.05366003 -3 2 C-2.01 2 -1.02 2 0 2 C0 1.34 0 0.68 0 0 Z M-5.4375 86.125 C-9.16574748 90.3079118 -11 93.35014192 -11 99 C-8.03 98.34 -5.06 97.68 -2 97 C-1.67 92.71 -1.34 88.42 -1 84 C-3.28769798 83.78095493 -3.28769798 83.78095493 -5.4375 86.125 Z M-38 85 C-39.42041821 87.84083641 -39.31452272 89.85477278 -39 93 C-36.14916368 97.1052043 -32.73931075 97.9063129 -28 99 C-28.50331214 94.57242604 -29.99434352 92.42394796 -33 89.1875 C-33.721875 88.39730469 -34.44375 87.60710937 -35.1875 86.79296875 C-36.693573 84.882789 -36.693573 84.882789 -38 85 Z M-12 123 C-12 126.3 -12 129.6 -12 133 C-11.67 133 -11.34 133 -11 133 C-11 129.7 -11 126.4 -11 123 C-11.33 123 -11.66 123 -12 123 Z M-27 125 C-26 127 -26 127 -26 127 Z M-26 129 C-25 133 -25 133 -25 133 Z " fill="#000000" transform="translate(86,0)"/>
<path d="" fill="#000000" transform="translate(0,0)"/>
</svg>
